<svg xmlns="http://www.w3.org/2000/svg" viewBox="0 0 560 680" role="img" aria-label="NoteGate">
  <g transform="translate(72 24) scale(.8)" fill="none" stroke="#f7f9fb" stroke-linecap="round" stroke-linejoin="round"><path d="M116 410V102a30 30 0 0 1 30-30h210" stroke-width="24"/><path d="M116 410h240" stroke-width="24"/><path d="M198 176v160M198 228h80M198 304h80" stroke-width="18"/></g>
  <g transform="translate(72 24) scale(.8)" fill="#f7f9fb"><rect x="174" y="150" width="48" height="48" rx="9"/><rect x="270" y="204" width="58" height="48" rx="9"/><rect x="270" y="280" width="58" height="48" rx="9"/><path d="M342 112 430 66v380l-88-46V112Z"/></g>
  <path d="M117 0V1490H422L923 693Q945 659 978.0 601.5Q1011 544 1048.5 477.5Q1086 411 1120 350L1088 278Q1084 343 1081.5 428.5Q1079 514 1077.5 593.0Q1076 672 1076 715V1490H1363V0H1057L604 719Q579 760 538.0 828.0Q497 896 447.0 984.0Q397 1072 341 1171L390 1208Q396 1097 399.0 1001.0Q402 905 403.0 833.0Q404 761 404 720V0ZM1984 -24Q1826 -24 1707.0 45.0Q1588 114 1521.5 238.0Q1455 362 1455 527Q1455 692 1521.5 816.5Q1588 941 1707.0 1010.5Q1826 1080 1984 1080Q2142 1080 2260.5 1010.5Q2379 941 2445.5 816.5Q2512 692 2512 527Q2512 362 2445.5 238.0Q2379 114 2260.5 45.0Q2142 -24 1984 -24ZM1984 201Q2060 201 2116.5 240.0Q2173 279 2204.5 352.5Q2236 426 2236 527Q2236 629 2204.5 702.5Q2173 776 2116.5 815.5Q2060 855 1984 855Q1908 855 1851.0 815.5Q1794 776 1762.5 702.5Q1731 629 1731 527Q1731 425 1762.5 352.0Q1794 279 1851.0 240.0Q1908 201 1984 201ZM3177 1056V839H2505V1056ZM2688 1344H2962V315Q2962 260 2984.0 238.5Q3006 217 3067 217Q3092 217 3125.0 217.0Q3158 217 3177 217V0Q3151 0 3106.0 0.0Q3061 0 3016 0Q2847 0 2767.5 66.5Q2688 133 2688 273ZM3705 -24Q3546 -24 3428.5 47.0Q3311 118 3247.0 242.5Q3183 367 3183 527Q3183 688 3248.5 813.0Q3314 938 3429.5 1009.0Q3545 1080 3695 1080Q3810 1080 3904.5 1040.0Q3999 1000 4067.0 927.0Q4135 854 4171.5 753.5Q4208 653 4208 532V458H3286V639H4074L3951 593Q3951 678 3920.5 739.5Q3890 801 3833.5 834.5Q3777 868 3700 868Q3624 868 3568.0 834.5Q3512 801 3481.0 739.5Q3450 678 3450 593V474Q3450 388 3481.0 323.0Q3512 258 3570.5 222.0Q3629 186 3712 186Q3773 186 3820.0 204.0Q3867 222 3898.5 254.0Q3930 286 3943 329H4196Q4177 225 4108.0 145.5Q4039 66 3935.0 21.0Q3831 -24 3705 -24ZM4950 -24Q4741 -24 4582.5 72.5Q4424 169 4335.0 342.0Q4246 515 4246 744Q4246 980 4337.5 1153.0Q4429 1326 4587.5 1420.0Q4746 1514 4947 1514Q5073 1514 5184.5 1476.5Q5296 1439 5382.5 1369.5Q5469 1300 5525.0 1205.0Q5581 1110 5596 994H5305Q5292 1054 5261.5 1103.0Q5231 1152 5185.5 1187.0Q5140 1222 5082.0 1241.0Q5024 1260 4954 1260Q4825 1260 4730.5 1196.5Q4636 1133 4585.0 1017.5Q4534 902 4534 744Q4534 587 4585.5 472.0Q4637 357 4732.0 293.5Q4827 230 4957 230Q5065 230 5148.0 272.5Q5231 315 5278.0 391.0Q5325 467 5325 568L5396 562H4989V784H5606V599Q5606 416 5521.0 275.5Q5436 135 5288.5 55.5Q5141 -24 4950 -24ZM6029 -17Q5924 -17 5842.0 18.0Q5760 53 5712.5 123.5Q5665 194 5665 299Q5665 389 5698.5 448.0Q5732 507 5789.5 542.5Q5847 578 5922.0 596.5Q5997 615 6079 623Q6176 634 6233.5 642.5Q6291 651 6315.5 668.0Q6340 685 6340 720V727Q6340 769 6318.0 801.5Q6296 834 6255.5 852.0Q6215 870 6157 870Q6100 870 6056.0 851.5Q6012 833 5986.5 800.5Q5961 768 5957 725H5697Q5704 832 5761.0 911.0Q5818 990 5920.5 1034.0Q6023 1078 6165 1078Q6270 1078 6353.0 1053.0Q6436 1028 6493.5 981.0Q6551 934 6581.0 867.5Q6611 801 6611 718V0H6343V149H6339Q6313 100 6272.0 62.5Q6231 25 6172.0 4.0Q6113 -17 6029 -17ZM6101 178Q6177 178 6231.0 206.0Q6285 234 6313.5 281.5Q6342 329 6342 388V499Q6330 491 6308.0 484.5Q6286 478 6256.0 472.0Q6226 466 6191.0 460.0Q6156 454 6119 449Q6067 441 6024.0 424.0Q5981 407 5955.0 378.0Q5929 349 5929 304Q5929 265 5950.0 236.5Q5971 208 6010.0 193.0Q6049 178 6101 178ZM7323 1056V839H6650V1056ZM6834 1344H7107V315Q7107 260 7129.5 238.5Q7152 217 7212 217Q7237 217 7270.5 217.0Q7304 217 7323 217V0Q7297 0 7251.5 0.0Q7206 0 7161 0Q6993 0 6913.5 66.5Q6834 133 6834 273ZM7851 -24Q7692 -24 7574.5 47.0Q7457 118 7393.0 242.5Q7329 367 7329 527Q7329 688 7394.5 813.0Q7460 938 7575.5 1009.0Q7691 1080 7841 1080Q7956 1080 8050.0 1040.0Q8144 1000 8212.0 927.0Q8280 854 8317.0 753.5Q8354 653 8354 532V458H7432V639H8219L8096 593Q8096 678 8065.5 739.5Q8035 801 7979.0 834.5Q7923 868 7846 868Q7769 868 7713.0 834.5Q7657 801 7626.5 739.5Q7596 678 7596 593V474Q7596 388 7626.5 323.0Q7657 258 7716.0 222.0Q7775 186 7858 186Q7919 186 7965.5 204.0Q8012 222 8043.5 254.0Q8075 286 8089 329H8342Q8322 225 8253.5 145.5Q8185 66 8081.0 21.0Q7977 -24 7851 -24Z" fill="#f7f9fb" transform="translate(280 604) scale(.044921875 -.044921875) translate(-4204.833333 0)"/>
</svg>
